<svg width="174" height="50" viewBox="0 0 174 50" fill="none" xmlns="http://www.w3.org/2000/svg">
<g clip-path="url(#clip0_117_1456)">
<path d="M59.125 12.974C59.9243 13.26 60.3203 13.8833 60.313 14.844C60.2983 15.5553 60.0563 16.109 59.587 16.505C59.1177 16.9083 58.4797 17.099 57.673 17.077C57.255 17.0623 56.804 17.0147 56.32 16.934C56.1513 16.912 55.9937 16.8863 55.847 16.857C55.7883 16.8423 55.737 16.8313 55.693 16.824C55.649 16.8167 55.6197 16.8093 55.605 16.802L55.66 16.076C55.7187 16.0907 55.8103 16.109 55.935 16.131C56.0817 16.1603 56.2357 16.186 56.397 16.208C56.8517 16.2813 57.2367 16.3253 57.552 16.34C58.8207 16.3693 59.455 15.8597 59.455 14.811C59.455 14.3123 59.323 13.9567 59.059 13.744C58.773 13.524 58.289 13.414 57.607 13.414H56.595V12.677H57.618C58.1387 12.677 58.5457 12.545 58.839 12.281C59.125 12.017 59.268 11.6467 59.268 11.17C59.268 10.356 58.696 9.96733 57.552 10.004C57.3247 10.004 57.024 10.0333 56.65 10.092C56.254 10.1507 55.935 10.2203 55.693 10.301L55.66 9.597C56.3053 9.40633 56.9763 9.3 57.673 9.278C58.3917 9.24867 58.9747 9.39533 59.422 9.718C59.8693 10.0553 60.0967 10.5137 60.104 11.093C60.1187 11.973 59.7923 12.6 59.125 12.974ZM65.5402 13.161V15.977C65.5622 16.2483 65.7749 16.4097 66.1782 16.461L66.1452 17.11C65.5659 17.11 65.1296 16.9633 64.8362 16.67C64.1762 16.9633 63.5162 17.11 62.8562 17.11C62.3502 17.11 61.9652 16.967 61.7012 16.681C61.4372 16.395 61.3052 15.9843 61.3052 15.449C61.3052 14.9137 61.4409 14.5213 61.7122 14.272C61.9836 14.0153 62.4089 13.8577 62.9882 13.799L64.7152 13.634V13.161C64.7152 12.787 64.6346 12.5193 64.4732 12.358C64.3119 12.1967 64.0919 12.116 63.8132 12.116C63.2266 12.116 62.6179 12.1527 61.9872 12.226L61.6462 12.259L61.6132 11.632C62.4199 11.4707 63.1349 11.39 63.7582 11.39C64.3816 11.39 64.8326 11.533 65.1112 11.819C65.3972 12.105 65.5402 12.5523 65.5402 13.161ZM62.1522 15.405C62.1522 16.0797 62.4309 16.417 62.9882 16.417C63.4869 16.417 63.9782 16.3327 64.4622 16.164L64.7152 16.076V14.261L63.0872 14.415C62.7572 14.4443 62.5189 14.5397 62.3722 14.701C62.2256 14.8623 62.1522 15.097 62.1522 15.405ZM67.168 11.5H70.633V12.215H67.982V17H67.168V11.5ZM71.7549 19.442V11.5H72.5689V11.896C73.1262 11.5587 73.6762 11.39 74.2189 11.39C74.9156 11.39 75.4216 11.6137 75.7369 12.061C76.0522 12.501 76.2099 13.2307 76.2099 14.25C76.2099 15.2693 76.0229 16.0027 75.6489 16.45C75.2822 16.89 74.6699 17.11 73.8119 17.11C73.3646 17.11 72.9539 17.0697 72.5799 16.989V19.442H71.7549ZM74.0979 12.127C73.8779 12.127 73.6396 12.1637 73.3829 12.237C73.1336 12.3103 72.9356 12.3837 72.7889 12.457L72.5799 12.567V16.274C73.1006 16.3547 73.4966 16.395 73.7679 16.395C74.3619 16.395 74.7762 16.2263 75.0109 15.889C75.2529 15.5517 75.3739 15.0017 75.3739 14.239C75.3739 13.4763 75.2639 12.9337 75.0439 12.611C74.8312 12.2883 74.5159 12.127 74.0979 12.127ZM77.8857 18.76C78.069 18.7673 78.2083 18.7673 78.3037 18.76C78.5823 18.738 78.795 18.507 78.9417 18.067L79.2937 17H78.7107L77.0387 11.5H77.8747L79.2827 16.274H79.5467L81.0647 11.5H81.8677L79.6457 18.276C79.455 18.7453 79.2607 19.0643 79.0627 19.233C78.872 19.4017 78.6557 19.486 78.4137 19.486C78.179 19.486 78.003 19.4713 77.8857 19.442V18.76ZM84.1255 13.898C84.5215 13.898 84.8515 13.8247 85.1155 13.678C85.4162 13.5167 85.5665 13.282 85.5665 12.974C85.5665 12.666 85.4638 12.4497 85.2585 12.325C85.0532 12.2003 84.7085 12.1343 84.2245 12.127C83.7405 12.1197 83.2198 12.182 82.6625 12.314L82.6295 11.654C82.7175 11.632 82.8055 11.6137 82.8935 11.599C82.9815 11.577 83.1575 11.544 83.4215 11.5C83.6928 11.4487 84.0082 11.423 84.3675 11.423C85.6802 11.423 86.3402 11.9217 86.3475 12.919C86.3622 13.4837 86.1458 13.8943 85.6985 14.151C85.9918 14.2757 86.2045 14.437 86.3365 14.635C86.4685 14.833 86.5345 15.1117 86.5345 15.471C86.5345 16.5857 85.7828 17.1247 84.2795 17.088C83.6195 17.0733 83.0548 17.0073 82.5855 16.89L82.6295 16.197C82.9668 16.263 83.2345 16.3107 83.4325 16.34C83.6305 16.3693 83.9458 16.384 84.3785 16.384C84.8112 16.384 85.1448 16.318 85.3795 16.186C85.6142 16.054 85.7315 15.812 85.7315 15.46C85.7315 15.1007 85.5848 14.8513 85.2915 14.712C85.0422 14.5947 84.6535 14.536 84.1255 14.536H83.4655V13.898H84.1255ZM91.6409 17.011V12.38H91.5529L89.0999 17.011H87.8789V11.5H88.6929V16.076H88.7809L91.2339 11.5H92.4439V17.011H91.6409ZM93.5614 11.5H98.2254V12.204H96.3004V17H95.4864V12.204H93.5614V11.5ZM103.092 16.318L103.411 16.285L103.433 16.934C102.597 17.0513 101.882 17.11 101.288 17.11C100.496 17.11 99.9346 16.8827 99.6046 16.428C99.2746 15.966 99.1096 15.251 99.1096 14.283C99.1096 12.3543 99.8759 11.39 101.409 11.39C102.149 11.39 102.703 11.599 103.07 12.017C103.436 12.4277 103.62 13.0767 103.62 13.964L103.576 14.591H99.9456C99.9456 15.1997 100.056 15.6507 100.276 15.944C100.496 16.2373 100.877 16.384 101.42 16.384C101.97 16.384 102.527 16.362 103.092 16.318ZM102.795 13.931C102.795 13.2563 102.685 12.7797 102.465 12.501C102.252 12.2223 101.9 12.083 101.409 12.083C100.925 12.083 100.558 12.2297 100.309 12.523C100.067 12.8163 99.9419 13.2857 99.9346 13.931H102.795ZM110.721 15.416C110.729 15.7313 110.644 15.9623 110.468 16.109C110.3 16.2483 109.995 16.318 109.555 16.318H108.136V14.492H109.676C110.366 14.492 110.714 14.8 110.721 15.416ZM110.622 13.007C110.622 13.5497 110.303 13.821 109.665 13.821H108.136V12.193H109.731C110.325 12.193 110.622 12.4643 110.622 13.007ZM109.544 17C110.908 17 111.59 16.472 111.59 15.416C111.59 15.152 111.528 14.8917 111.403 14.635C111.279 14.371 111.084 14.1913 110.82 14.096C110.908 14.0593 110.985 14.0117 111.051 13.953C111.117 13.887 111.18 13.8173 111.238 13.744C111.392 13.5167 111.466 13.2417 111.458 12.919C111.451 11.973 110.868 11.5 109.709 11.5H107.322V17H109.544Z" fill="white"/>
<path d="M55.4 39L58.78 25.3H63.2L66.6 39H64.36L63.62 36.06H58.36L57.62 39H55.4ZM60.5 27.16L58.8 34.1H63.18L61.5 27.16H60.5ZM68.2927 43.3V29H70.4527V29.62C71.3727 29.06 72.2327 28.78 73.0327 28.78C74.3527 28.78 75.3193 29.1867 75.9327 30C76.546 30.8 76.8527 32.1533 76.8527 34.06C76.8527 35.9533 76.4993 37.2867 75.7927 38.06C75.0993 38.8333 73.9593 39.22 72.3727 39.22C71.826 39.22 71.1927 39.16 70.4727 39.04V43.3H68.2927ZM72.6527 30.72C72.026 30.72 71.3993 30.86 70.7727 31.14L70.4727 31.28V37.18C71.006 37.2867 71.5927 37.34 72.2327 37.34C73.1393 37.34 73.766 37.08 74.1127 36.56C74.4593 36.04 74.6327 35.1533 74.6327 33.9C74.6327 31.78 73.9727 30.72 72.6527 30.72ZM79.0348 43.3V29H81.1948V29.62C82.1148 29.06 82.9748 28.78 83.7748 28.78C85.0948 28.78 86.0615 29.1867 86.6748 30C87.2882 30.8 87.5948 32.1533 87.5948 34.06C87.5948 35.9533 87.2415 37.2867 86.5348 38.06C85.8415 38.8333 84.7015 39.22 83.1148 39.22C82.5682 39.22 81.9348 39.16 81.2148 39.04V43.3H79.0348ZM83.3948 30.72C82.7682 30.72 82.1415 30.86 81.5148 31.14L81.2148 31.28V37.18C81.7482 37.2867 82.3348 37.34 82.9748 37.34C83.8815 37.34 84.5082 37.08 84.8548 36.56C85.2015 36.04 85.3748 35.1533 85.3748 33.9C85.3748 31.78 84.7148 30.72 83.3948 30.72ZM98.4516 27.02C96.7582 27.02 95.9116 27.6133 95.9116 28.8C95.9116 29.4133 96.1116 29.8533 96.5116 30.12C96.9116 30.3733 97.7916 30.6933 99.1516 31.08C100.525 31.4533 101.492 31.9067 102.052 32.44C102.612 32.96 102.892 33.7867 102.892 34.92C102.892 36.36 102.478 37.44 101.652 38.16C100.838 38.8667 99.7249 39.22 98.3116 39.22C97.1782 39.22 95.9249 39.0867 94.5516 38.82L93.8316 38.68L94.0516 36.9C95.8516 37.14 97.2249 37.26 98.1716 37.26C99.8249 37.26 100.652 36.5267 100.652 35.06C100.652 34.4867 100.465 34.0667 100.092 33.8C99.7182 33.52 98.8782 33.22 97.5716 32.9C96.2649 32.5667 95.2916 32.1133 94.6516 31.54C94.0116 30.9667 93.6916 30.06 93.6916 28.82C93.6916 27.58 94.0916 26.6467 94.8916 26.02C95.7049 25.38 96.8249 25.06 98.2516 25.06C99.2782 25.06 100.492 25.18 101.892 25.42L102.592 25.54L102.412 27.34C100.545 27.1267 99.2249 27.02 98.4516 27.02ZM110.274 30.86H107.514V35.26C107.514 36.0733 107.574 36.6133 107.694 36.88C107.814 37.1467 108.121 37.28 108.614 37.28L110.254 37.22L110.354 38.96C109.461 39.1333 108.781 39.22 108.314 39.22C107.181 39.22 106.401 38.96 105.974 38.44C105.561 37.92 105.354 36.94 105.354 35.5V30.86H104.074V29H105.354V26.1H107.514V29H110.274V30.86ZM112.602 30.08C113.296 29.2133 114.442 28.78 116.042 28.78C117.642 28.78 118.782 29.2133 119.462 30.08C120.156 30.9467 120.502 32.2467 120.502 33.98C120.502 35.7133 120.169 37.02 119.502 37.9C118.836 38.78 117.682 39.22 116.042 39.22C114.402 39.22 113.249 38.78 112.582 37.9C111.916 37.02 111.582 35.7133 111.582 33.98C111.582 32.2467 111.922 30.9467 112.602 30.08ZM114.242 36.58C114.549 37.1133 115.149 37.38 116.042 37.38C116.936 37.38 117.536 37.1133 117.842 36.58C118.149 36.0467 118.302 35.1733 118.302 33.96C118.302 32.7467 118.136 31.8867 117.802 31.38C117.482 30.8733 116.896 30.62 116.042 30.62C115.189 30.62 114.596 30.8733 114.262 31.38C113.942 31.8867 113.782 32.7467 113.782 33.96C113.782 35.1733 113.936 36.0467 114.242 36.58ZM122.668 39V29H124.828V30.2C125.961 29.4667 127.094 28.9933 128.228 28.78V30.96C127.081 31.1867 126.101 31.48 125.288 31.84L124.848 32.02V39H122.668ZM136.936 37.2L137.496 37.14L137.536 38.76C136.016 39.0667 134.669 39.22 133.496 39.22C132.016 39.22 130.949 38.8133 130.296 38C129.656 37.1867 129.336 35.8867 129.336 34.1C129.336 30.5533 130.783 28.78 133.676 28.78C136.476 28.78 137.876 30.3067 137.876 33.36L137.736 34.92H131.536C131.549 35.7467 131.729 36.3533 132.076 36.74C132.423 37.1267 133.069 37.32 134.016 37.32C134.963 37.32 135.936 37.28 136.936 37.2ZM135.736 33.24C135.736 32.2533 135.576 31.5667 135.256 31.18C134.949 30.78 134.423 30.58 133.676 30.58C132.929 30.58 132.383 30.7867 132.036 31.2C131.703 31.6133 131.529 32.2933 131.516 33.24H135.736Z" fill="white"/>
<path d="M35.5389 31.2619C35.1439 32.1703 34.6764 33.0064 34.1347 33.7752C33.3963 34.8231 32.7917 35.5485 32.3258 35.9514C31.6036 36.6126 30.8297 36.9512 30.001 36.9705C29.4061 36.9705 28.6887 36.802 27.8536 36.4601C27.0157 36.1199 26.2457 35.9514 25.5417 35.9514C24.8033 35.9514 24.0114 36.1199 23.1644 36.4601C22.316 36.802 21.6326 36.9801 21.1101 36.9978C20.3155 37.0315 19.5234 36.6832 18.7328 35.9514C18.2281 35.5132 17.597 34.7621 16.8408 33.6981C16.0296 32.5618 15.3626 31.2442 14.8401 29.742C14.2805 28.1195 14 26.5483 14 25.0272C14 23.2848 14.3782 21.782 15.1358 20.5226C15.7312 19.5111 16.5232 18.7131 17.5146 18.1273C18.5059 17.5416 19.5771 17.243 20.7306 17.224C21.3618 17.224 22.1895 17.4183 23.218 17.8003C24.2437 18.1835 24.9023 18.3779 25.191 18.3779C25.4069 18.3779 26.1385 18.1506 27.3788 17.6976C28.5517 17.2774 29.5415 17.1034 30.3525 17.1719C32.5499 17.3485 34.2008 18.2108 35.2987 19.7643C33.3334 20.9497 32.3613 22.6099 32.3806 24.7398C32.3984 26.3988 33.0029 27.7793 34.1911 28.8755C34.7296 29.3842 35.3309 29.7774 36 30.0566C35.8549 30.4755 35.7017 30.8767 35.5389 31.2619V31.2619ZM30.4992 11.5202C30.4992 12.8204 30.022 14.0345 29.0708 15.1583C27.9229 16.4942 26.5345 17.2661 25.0289 17.1443C25.0087 16.9809 24.9986 16.8163 24.9985 16.6516C24.9985 15.4033 25.5444 14.0674 26.5139 12.9751C26.9978 12.4221 27.6134 11.9623 28.3598 11.5954C29.1046 11.2341 29.8092 11.0342 30.4718 11C30.4912 11.1738 30.4992 11.3477 30.4992 11.5201V11.5202Z" fill="white"/>
</g>
<path d="M3.31813 49.3673L2.87115 50.2618L3.31813 49.3673ZM0.632732 46.6819L1.52728 46.2349L0.632732 46.6819ZM173.367 46.6819L174.262 47.1288L173.367 46.6819ZM170.682 49.3673L170.235 48.4727L170.682 49.3673ZM170.682 0.632732L171.129 -0.261813L170.682 0.632732ZM173.367 3.31813L174.262 2.87115L173.367 3.31813ZM0.632732 3.31813L-0.261813 2.87115L0.632732 3.31813ZM9.54 1H164.46V-1H9.54V1ZM173 9.54V40.46H175V9.54H173ZM164.46 49H9.54V51H164.46V49ZM1 40.46V9.54H-1V40.46H1ZM9.54 49C7.87192 49 6.68 48.9992 5.74513 48.9241C4.82165 48.8499 4.23588 48.708 3.76511 48.4727L2.87115 50.2618C3.66667 50.6593 4.53998 50.8337 5.58493 50.9177C6.61849 51.0008 7.90436 51 9.54 51V49ZM-1 40.46C-1 42.0956 -1.00075 43.3815 -0.917695 44.4151C-0.833723 45.46 -0.659313 46.3333 -0.261813 47.1288L1.52728 46.2349C1.29204 45.7641 1.15009 45.1784 1.07588 44.2549C1.00075 43.32 1 42.1281 1 40.46H-1ZM3.76511 48.4727C2.79654 47.9888 2.01124 47.2035 1.52728 46.2349L-0.261813 47.1288C0.41574 48.4848 1.51515 49.5843 2.87115 50.2618L3.76511 48.4727ZM173 40.46C173 42.1281 172.999 43.32 172.924 44.2549C172.85 45.1784 172.708 45.7641 172.473 46.2349L174.262 47.1288C174.659 46.3333 174.834 45.46 174.918 44.4151C175.001 43.3815 175 42.0956 175 40.46H173ZM164.46 51C166.096 51 167.382 51.0008 168.415 50.9177C169.46 50.8337 170.333 50.6593 171.129 50.2618L170.235 48.4727C169.764 48.708 169.178 48.8499 168.255 48.9241C167.32 48.9992 166.128 49 164.46 49V51ZM172.473 46.2349C171.989 47.2035 171.203 47.9888 170.235 48.4727L171.129 50.2618C172.485 49.5843 173.584 48.4848 174.262 47.1288L172.473 46.2349ZM164.46 1C166.128 1 167.32 1.00075 168.255 1.07588C169.178 1.15009 169.764 1.29204 170.235 1.52728L171.129 -0.261813C170.333 -0.659313 169.46 -0.833723 168.415 -0.917695C167.382 -1.00075 166.096 -1 164.46 -1V1ZM175 9.54C175 7.90436 175.001 6.61849 174.918 5.58493C174.834 4.53998 174.659 3.66667 174.262 2.87115L172.473 3.76511C172.708 4.23588 172.85 4.82165 172.924 5.74513C172.999 6.68 173 7.87192 173 9.54H175ZM170.235 1.52728C171.203 2.01124 171.989 2.79654 172.473 3.76511L174.262 2.87115C173.584 1.51515 172.485 0.41574 171.129 -0.261813L170.235 1.52728ZM9.54 -1C7.90436 -1 6.61849 -1.00075 5.58493 -0.917695C4.53998 -0.833723 3.66667 -0.659313 2.87115 -0.261813L3.76511 1.52728C4.23588 1.29204 4.82165 1.15009 5.74513 1.07588C6.68 1.00075 7.87192 1 9.54 1V-1ZM1 9.54C1 7.87192 1.00075 6.68 1.07588 5.74513C1.15009 4.82165 1.29204 4.23588 1.52728 3.76511L-0.261813 2.87115C-0.659313 3.66667 -0.833723 4.53998 -0.917695 5.58493C-1.00075 6.61849 -1 7.90436 -1 9.54H1ZM2.87115 -0.261813C1.51515 0.41574 0.41574 1.51515 -0.261813 2.87115L1.52728 3.76511C2.01124 2.79654 2.79654 2.01124 3.76511 1.52728L2.87115 -0.261813Z" fill="white"/>
<defs>
<clipPath id="clip0_117_1456">
<path d="M0 9.54C0 6.23628 0 4.58442 0.632732 3.31813C1.21349 2.15585 2.15585 1.21349 3.31813 0.632732C4.58442 0 6.23628 0 9.54 0H164.46C167.764 0 169.416 0 170.682 0.632732C171.844 1.21349 172.787 2.15585 173.367 3.31813C174 4.58442 174 6.23628 174 9.54V40.46C174 43.7637 174 45.4156 173.367 46.6819C172.787 47.8442 171.844 48.7865 170.682 49.3673C169.416 50 167.764 50 164.46 50H9.54C6.23628 50 4.58442 50 3.31813 49.3673C2.15585 48.7865 1.21349 47.8442 0.632732 46.6819C0 45.4156 0 43.7637 0 40.46V9.54Z" fill="white"/>
</clipPath>
</defs>
</svg>
