<svg width="174" height="50" viewBox="0 0 174 50" fill="none" xmlns="http://www.w3.org/2000/svg">
<path d="M59.125 12.974C59.9243 13.26 60.3203 13.8833 60.313 14.844C60.2983 15.5553 60.0563 16.109 59.587 16.505C59.1177 16.9083 58.4797 17.099 57.673 17.077C57.255 17.0623 56.804 17.0147 56.32 16.934C56.1513 16.912 55.9937 16.8863 55.847 16.857C55.7883 16.8423 55.737 16.8313 55.693 16.824C55.649 16.8167 55.6197 16.8093 55.605 16.802L55.66 16.076C55.7187 16.0907 55.8103 16.109 55.935 16.131C56.0817 16.1603 56.2357 16.186 56.397 16.208C56.8517 16.2813 57.2367 16.3253 57.552 16.34C58.8207 16.3693 59.455 15.8597 59.455 14.811C59.455 14.3123 59.323 13.9567 59.059 13.744C58.773 13.524 58.289 13.414 57.607 13.414H56.595V12.677H57.618C58.1387 12.677 58.5457 12.545 58.839 12.281C59.125 12.017 59.268 11.6467 59.268 11.17C59.268 10.356 58.696 9.96733 57.552 10.004C57.3247 10.004 57.024 10.0333 56.65 10.092C56.254 10.1507 55.935 10.2203 55.693 10.301L55.66 9.597C56.3053 9.40633 56.9763 9.3 57.673 9.278C58.3917 9.24867 58.9747 9.39533 59.422 9.718C59.8693 10.0553 60.0967 10.5137 60.104 11.093C60.1187 11.973 59.7923 12.6 59.125 12.974ZM65.5402 13.161V15.977C65.5622 16.2483 65.7749 16.4097 66.1782 16.461L66.1452 17.11C65.5659 17.11 65.1296 16.9633 64.8362 16.67C64.1762 16.9633 63.5162 17.11 62.8562 17.11C62.3502 17.11 61.9652 16.967 61.7012 16.681C61.4372 16.395 61.3052 15.9843 61.3052 15.449C61.3052 14.9137 61.4409 14.5213 61.7122 14.272C61.9836 14.0153 62.4089 13.8577 62.9882 13.799L64.7152 13.634V13.161C64.7152 12.787 64.6346 12.5193 64.4732 12.358C64.3119 12.1967 64.0919 12.116 63.8132 12.116C63.2266 12.116 62.6179 12.1527 61.9872 12.226L61.6462 12.259L61.6132 11.632C62.4199 11.4707 63.1349 11.39 63.7582 11.39C64.3816 11.39 64.8326 11.533 65.1112 11.819C65.3972 12.105 65.5402 12.5523 65.5402 13.161ZM62.1522 15.405C62.1522 16.0797 62.4309 16.417 62.9882 16.417C63.4869 16.417 63.9782 16.3327 64.4622 16.164L64.7152 16.076V14.261L63.0872 14.415C62.7572 14.4443 62.5189 14.5397 62.3722 14.701C62.2256 14.8623 62.1522 15.097 62.1522 15.405ZM67.168 11.5H70.633V12.215H67.982V17H67.168V11.5ZM71.7549 19.442V11.5H72.5689V11.896C73.1262 11.5587 73.6762 11.39 74.2189 11.39C74.9156 11.39 75.4216 11.6137 75.7369 12.061C76.0522 12.501 76.2099 13.2307 76.2099 14.25C76.2099 15.2693 76.0229 16.0027 75.6489 16.45C75.2822 16.89 74.6699 17.11 73.8119 17.11C73.3646 17.11 72.9539 17.0697 72.5799 16.989V19.442H71.7549ZM74.0979 12.127C73.8779 12.127 73.6396 12.1637 73.3829 12.237C73.1336 12.3103 72.9356 12.3837 72.7889 12.457L72.5799 12.567V16.274C73.1006 16.3547 73.4966 16.395 73.7679 16.395C74.3619 16.395 74.7762 16.2263 75.0109 15.889C75.2529 15.5517 75.3739 15.0017 75.3739 14.239C75.3739 13.4763 75.2639 12.9337 75.0439 12.611C74.8312 12.2883 74.5159 12.127 74.0979 12.127ZM77.8857 18.76C78.069 18.7673 78.2083 18.7673 78.3037 18.76C78.5823 18.738 78.795 18.507 78.9417 18.067L79.2937 17H78.7107L77.0387 11.5H77.8747L79.2827 16.274H79.5467L81.0647 11.5H81.8677L79.6457 18.276C79.455 18.7453 79.2607 19.0643 79.0627 19.233C78.872 19.4017 78.6557 19.486 78.4137 19.486C78.179 19.486 78.003 19.4713 77.8857 19.442V18.76ZM84.1255 13.898C84.5215 13.898 84.8515 13.8247 85.1155 13.678C85.4162 13.5167 85.5665 13.282 85.5665 12.974C85.5665 12.666 85.4638 12.4497 85.2585 12.325C85.0532 12.2003 84.7085 12.1343 84.2245 12.127C83.7405 12.1197 83.2198 12.182 82.6625 12.314L82.6295 11.654C82.7175 11.632 82.8055 11.6137 82.8935 11.599C82.9815 11.577 83.1575 11.544 83.4215 11.5C83.6928 11.4487 84.0082 11.423 84.3675 11.423C85.6802 11.423 86.3402 11.9217 86.3475 12.919C86.3622 13.4837 86.1458 13.8943 85.6985 14.151C85.9918 14.2757 86.2045 14.437 86.3365 14.635C86.4685 14.833 86.5345 15.1117 86.5345 15.471C86.5345 16.5857 85.7828 17.1247 84.2795 17.088C83.6195 17.0733 83.0548 17.0073 82.5855 16.89L82.6295 16.197C82.9668 16.263 83.2345 16.3107 83.4325 16.34C83.6305 16.3693 83.9458 16.384 84.3785 16.384C84.8112 16.384 85.1448 16.318 85.3795 16.186C85.6142 16.054 85.7315 15.812 85.7315 15.46C85.7315 15.1007 85.5848 14.8513 85.2915 14.712C85.0422 14.5947 84.6535 14.536 84.1255 14.536H83.4655V13.898H84.1255ZM91.6409 17.011V12.38H91.5529L89.0999 17.011H87.8789V11.5H88.6929V16.076H88.7809L91.2339 11.5H92.4439V17.011H91.6409ZM93.5614 11.5H98.2254V12.204H96.3004V17H95.4864V12.204H93.5614V11.5ZM103.092 16.318L103.411 16.285L103.433 16.934C102.597 17.0513 101.882 17.11 101.288 17.11C100.496 17.11 99.9346 16.8827 99.6046 16.428C99.2746 15.966 99.1096 15.251 99.1096 14.283C99.1096 12.3543 99.8759 11.39 101.409 11.39C102.149 11.39 102.703 11.599 103.07 12.017C103.436 12.4277 103.62 13.0767 103.62 13.964L103.576 14.591H99.9456C99.9456 15.1997 100.056 15.6507 100.276 15.944C100.496 16.2373 100.877 16.384 101.42 16.384C101.97 16.384 102.527 16.362 103.092 16.318ZM102.795 13.931C102.795 13.2563 102.685 12.7797 102.465 12.501C102.252 12.2223 101.9 12.083 101.409 12.083C100.925 12.083 100.558 12.2297 100.309 12.523C100.067 12.8163 99.9419 13.2857 99.9346 13.931H102.795ZM110.721 15.416C110.729 15.7313 110.644 15.9623 110.468 16.109C110.3 16.2483 109.995 16.318 109.555 16.318H108.136V14.492H109.676C110.366 14.492 110.714 14.8 110.721 15.416ZM110.622 13.007C110.622 13.5497 110.303 13.821 109.665 13.821H108.136V12.193H109.731C110.325 12.193 110.622 12.4643 110.622 13.007ZM109.544 17C110.908 17 111.59 16.472 111.59 15.416C111.59 15.152 111.528 14.8917 111.403 14.635C111.279 14.371 111.084 14.1913 110.82 14.096C110.908 14.0593 110.985 14.0117 111.051 13.953C111.117 13.887 111.18 13.8173 111.238 13.744C111.392 13.5167 111.466 13.2417 111.458 12.919C111.451 11.973 110.868 11.5 109.709 11.5H107.322V17H109.544Z" fill="white"/>
<path d="M62.16 33.76V31.8H66.06V38.76C65.7 38.8533 64.9667 38.9533 63.86 39.06C62.7667 39.1667 61.9733 39.22 61.48 39.22C59.4 39.22 57.9667 38.6467 57.18 37.5C56.3933 36.3533 56 34.56 56 32.12C56 29.6667 56.4 27.88 57.2 26.76C58.0133 25.64 59.4133 25.08 61.4 25.08C62.5733 25.08 63.8933 25.2133 65.36 25.48L66.06 25.62L65.98 27.38C64.3667 27.1667 62.92 27.06 61.64 27.06C60.36 27.06 59.48 27.42 59 28.14C58.5333 28.86 58.3 30.1933 58.3 32.14C58.3 34.0867 58.52 35.4333 58.96 36.18C59.4133 36.9133 60.32 37.28 61.68 37.28C62.6533 37.28 63.38 37.22 63.86 37.1V33.76H62.16ZM69.1256 30.08C69.819 29.2133 70.9656 28.78 72.5656 28.78C74.1656 28.78 75.3056 29.2133 75.9856 30.08C76.679 30.9467 77.0256 32.2467 77.0256 33.98C77.0256 35.7133 76.6923 37.02 76.0256 37.9C75.359 38.78 74.2056 39.22 72.5656 39.22C70.9256 39.22 69.7723 38.78 69.1056 37.9C68.439 37.02 68.1056 35.7133 68.1056 33.98C68.1056 32.2467 68.4456 30.9467 69.1256 30.08ZM70.7656 36.58C71.0723 37.1133 71.6723 37.38 72.5656 37.38C73.459 37.38 74.059 37.1133 74.3656 36.58C74.6723 36.0467 74.8256 35.1733 74.8256 33.96C74.8256 32.7467 74.659 31.8867 74.3256 31.38C74.0056 30.8733 73.419 30.62 72.5656 30.62C71.7123 30.62 71.119 30.8733 70.7856 31.38C70.4656 31.8867 70.3056 32.7467 70.3056 33.96C70.3056 35.1733 70.459 36.0467 70.7656 36.58ZM79.7311 30.08C80.4244 29.2133 81.5711 28.78 83.1711 28.78C84.7711 28.78 85.9111 29.2133 86.5911 30.08C87.2844 30.9467 87.6311 32.2467 87.6311 33.98C87.6311 35.7133 87.2978 37.02 86.6311 37.9C85.9644 38.78 84.8111 39.22 83.1711 39.22C81.5311 39.22 80.3778 38.78 79.7111 37.9C79.0444 37.02 78.7111 35.7133 78.7111 33.98C78.7111 32.2467 79.0511 30.9467 79.7311 30.08ZM81.3711 36.58C81.6778 37.1133 82.2778 37.38 83.1711 37.38C84.0644 37.38 84.6644 37.1133 84.9711 36.58C85.2778 36.0467 85.4311 35.1733 85.4311 33.96C85.4311 32.7467 85.2644 31.8867 84.9311 31.38C84.6111 30.8733 84.0244 30.62 83.1711 30.62C82.3178 30.62 81.7244 30.8733 81.3911 31.38C81.0711 31.8867 80.9111 32.7467 80.9111 33.96C80.9111 35.1733 81.0644 36.0467 81.3711 36.58ZM98.5366 40.36C98.5366 42.5467 96.9566 43.64 93.7966 43.64C92.2766 43.64 91.1499 43.4333 90.4166 43.02C89.6832 42.6067 89.3166 41.8533 89.3166 40.76C89.3166 40.2667 89.4366 39.84 89.6766 39.48C89.9166 39.1333 90.3032 38.7533 90.8366 38.34C90.3966 38.0467 90.1766 37.56 90.1766 36.88C90.1766 36.6133 90.3566 36.18 90.7166 35.58L90.8966 35.28C89.9366 34.7067 89.4566 33.7067 89.4566 32.28C89.4566 31.08 89.8166 30.2 90.5366 29.64C91.2566 29.08 92.2299 28.8 93.4566 28.8C94.0432 28.8 94.6232 28.8667 95.1966 29L95.4966 29.06L98.5966 28.98V30.74L96.9366 30.64C97.2966 31.1067 97.4766 31.6533 97.4766 32.28C97.4766 33.5867 97.1432 34.4933 96.4766 35C95.8232 35.4933 94.7966 35.74 93.3966 35.74C93.0499 35.74 92.7566 35.7133 92.5166 35.66C92.3299 36.1133 92.2366 36.4667 92.2366 36.72C92.2366 36.96 92.3566 37.1267 92.5966 37.22C92.8499 37.3133 93.4499 37.3667 94.3966 37.38C95.9832 37.3933 97.0699 37.6067 97.6566 38.02C98.2432 38.4333 98.5366 39.2133 98.5366 40.36ZM91.4566 40.56C91.4566 41.0267 91.6432 41.36 92.0166 41.56C92.3899 41.76 93.0299 41.86 93.9366 41.86C95.5499 41.86 96.3566 41.4 96.3566 40.48C96.3566 39.96 96.2099 39.6267 95.9166 39.48C95.6366 39.3467 95.0699 39.2733 94.2166 39.26L92.2566 39.14C91.9632 39.38 91.7566 39.6 91.6366 39.8C91.5166 40.0133 91.4566 40.2667 91.4566 40.56ZM91.6166 32.28C91.6166 32.8933 91.7632 33.3467 92.0566 33.64C92.3499 33.92 92.8232 34.06 93.4766 34.06C94.1299 34.06 94.5966 33.92 94.8766 33.64C95.1699 33.3467 95.3166 32.8933 95.3166 32.28C95.3166 31.6667 95.1699 31.22 94.8766 30.94C94.5832 30.6467 94.1099 30.5 93.4566 30.5C92.2299 30.5 91.6166 31.0933 91.6166 32.28ZM100.424 39V24.84H102.604V39H100.424ZM112.483 37.2L113.043 37.14L113.083 38.76C111.563 39.0667 110.216 39.22 109.043 39.22C107.563 39.22 106.496 38.8133 105.843 38C105.203 37.1867 104.883 35.8867 104.883 34.1C104.883 30.5533 106.33 28.78 109.223 28.78C112.023 28.78 113.423 30.3067 113.423 33.36L113.283 34.92H107.083C107.096 35.7467 107.276 36.3533 107.623 36.74C107.97 37.1267 108.616 37.32 109.563 37.32C110.51 37.32 111.483 37.28 112.483 37.2ZM111.283 33.24C111.283 32.2533 111.123 31.5667 110.803 31.18C110.496 30.78 109.97 30.58 109.223 30.58C108.476 30.58 107.93 30.7867 107.583 31.2C107.25 31.6133 107.076 32.2933 107.063 33.24H111.283ZM125.194 34.74H122.394V39H120.174V25.3H125.194C128.3 25.3 129.854 26.8333 129.854 29.9C129.854 31.4733 129.46 32.6733 128.674 33.5C127.9 34.3267 126.74 34.74 125.194 34.74ZM122.394 32.82H125.174C126.774 32.82 127.574 31.8467 127.574 29.9C127.574 28.9667 127.38 28.2867 126.994 27.86C126.607 27.4333 126 27.22 125.174 27.22H122.394V32.82ZM131.85 39V24.84H134.03V39H131.85ZM144.189 32.08V36.64C144.202 36.9333 144.275 37.1533 144.409 37.3C144.555 37.4333 144.775 37.52 145.069 37.56L145.009 39.22C143.862 39.22 142.975 38.9733 142.349 38.48C141.282 38.9733 140.209 39.22 139.129 39.22C137.142 39.22 136.149 38.16 136.149 36.04C136.149 35.0267 136.415 34.2933 136.949 33.84C137.495 33.3867 138.329 33.1133 139.449 33.02L142.029 32.8V32.08C142.029 31.5467 141.909 31.1733 141.669 30.96C141.442 30.7467 141.102 30.64 140.649 30.64C139.795 30.64 138.729 30.6933 137.449 30.8L136.809 30.84L136.729 29.3C138.182 28.9533 139.515 28.78 140.729 28.78C141.955 28.78 142.835 29.0467 143.369 29.58C143.915 30.1 144.189 30.9333 144.189 32.08ZM139.709 34.56C138.789 34.64 138.329 35.14 138.329 36.06C138.329 36.98 138.735 37.44 139.549 37.44C140.215 37.44 140.922 37.3333 141.669 37.12L142.029 37V34.34L139.709 34.56ZM145.888 29H148.028L150.148 37.14H150.688L152.808 29H154.968L151.168 43.3H149.028L150.228 39H148.508L145.888 29Z" fill="white"/>
<g clip-path="url(#clip0_117_1457)">
<path d="M30.2483 24.4211L19.9028 13.6156L33.0653 21.4867L30.2483 24.4211ZM17.2035 12.9805C16.5938 13.3125 16.1865 13.918 16.1865 14.7039V36.2516C16.1865 37.0375 16.5945 37.643 17.2035 37.975L29.232 25.475L17.2035 12.9805ZM37.134 23.9961L34.3733 22.3312L31.2938 25.4805L34.3733 28.6297L37.1903 26.9648C38.034 26.2672 38.034 24.6945 37.134 23.9961ZM19.9035 37.3461L33.066 29.475L30.249 26.5406L19.9035 37.3461Z" fill="white"/>
</g>
<path d="M3.31813 49.3673L2.87115 50.2618L2.87115 50.2618L3.31813 49.3673ZM0.632732 46.6819L1.52728 46.2349L0.632732 46.6819ZM173.367 46.6819L174.262 47.1289L173.367 46.6819ZM170.682 49.3673L170.235 48.4727L170.682 49.3673ZM170.682 0.632732L171.129 -0.261813L170.682 0.632732ZM173.367 3.31813L174.262 2.87115L173.367 3.31813ZM0.632732 3.31813L-0.261813 2.87115L0.632732 3.31813ZM9.54 1H164.46V-1H9.54V1ZM173 9.54V40.46H175V9.54H173ZM164.46 49H9.54V51H164.46V49ZM1 40.46V9.54H-1V40.46H1ZM9.54 49C7.87192 49 6.68 48.9992 5.74513 48.9241C4.82165 48.8499 4.23588 48.708 3.76511 48.4727L2.87115 50.2618C3.66667 50.6593 4.53998 50.8337 5.58493 50.9177C6.61849 51.0008 7.90436 51 9.54 51V49ZM-1 40.46C-1 42.0956 -1.00075 43.3815 -0.917695 44.4151C-0.833723 45.46 -0.659313 46.3333 -0.261813 47.1289L1.52728 46.2349C1.29204 45.7641 1.15009 45.1784 1.07588 44.2549C1.00075 43.32 1 42.1281 1 40.46H-1ZM3.76511 48.4727C2.79654 47.9888 2.01124 47.2035 1.52728 46.2349L-0.261813 47.1289C0.41574 48.4848 1.51515 49.5843 2.87115 50.2618L3.76511 48.4727ZM173 40.46C173 42.1281 172.999 43.32 172.924 44.2549C172.85 45.1784 172.708 45.7641 172.473 46.2349L174.262 47.1289C174.659 46.3333 174.834 45.46 174.918 44.4151C175.001 43.3815 175 42.0956 175 40.46H173ZM164.46 51C166.096 51 167.382 51.0008 168.415 50.9177C169.46 50.8337 170.333 50.6593 171.129 50.2618L170.235 48.4727C169.764 48.708 169.178 48.8499 168.255 48.9241C167.32 48.9992 166.128 49 164.46 49V51ZM172.473 46.2349C171.989 47.2035 171.203 47.9888 170.235 48.4727L171.129 50.2618C172.485 49.5843 173.584 48.4848 174.262 47.1289L172.473 46.2349ZM164.46 1C166.128 1 167.32 1.00075 168.255 1.07588C169.178 1.15009 169.764 1.29204 170.235 1.52728L171.129 -0.261813C170.333 -0.659313 169.46 -0.833723 168.415 -0.917695C167.382 -1.00075 166.096 -1 164.46 -1V1ZM175 9.54C175 7.90436 175.001 6.61849 174.918 5.58493C174.834 4.53998 174.659 3.66667 174.262 2.87115L172.473 3.76511C172.708 4.23588 172.85 4.82165 172.924 5.74513C172.999 6.68 173 7.87192 173 9.54H175ZM170.235 1.52728C171.203 2.01124 171.989 2.79654 172.473 3.76511L174.262 2.87115C173.584 1.51515 172.485 0.41574 171.129 -0.261813L170.235 1.52728ZM9.54 -1C7.90436 -1 6.61849 -1.00075 5.58493 -0.917695C4.53998 -0.833723 3.66667 -0.659313 2.87115 -0.261813L3.76511 1.52728C4.23588 1.29204 4.82165 1.15009 5.74513 1.07588C6.68 1.00075 7.87192 1 9.54 1V-1ZM1 9.54C1 7.87192 1.00075 6.68 1.07588 5.74513C1.15009 4.82165 1.29204 4.23588 1.52728 3.76511L-0.261813 2.87115C-0.659313 3.66667 -0.833723 4.53998 -0.917695 5.58493C-1.00075 6.61849 -1 7.90436 -1 9.54H1ZM2.87115 -0.261813C1.51515 0.41574 0.41574 1.51515 -0.261813 2.87115L1.52728 3.76511C2.01124 2.79654 2.79654 2.01124 3.76511 1.52728L2.87115 -0.261813Z" fill="white"/>
<defs>
<clipPath id="clip0_117_1457">
<rect width="24" height="25" fill="white" transform="translate(15 12.9805)"/>
</clipPath>
</defs>
</svg>
