<svg width="174" height="50" fill="none" xmlns="http://www.w3.org/2000/svg"><path d="M59.125 12.974c.8.286 1.195.91 1.188 1.87-.015.711-.257 1.265-.726 1.661-.47.403-1.107.594-1.914.572a10.506 10.506 0 01-1.353-.143 7.122 7.122 0 01-.627-.11.366.366 0 01-.088-.022l.055-.726c.059.015.15.033.275.055.147.03.3.055.462.077.455.073.84.117 1.155.132 1.269.03 1.903-.48 1.903-1.529 0-.499-.132-.854-.396-1.067-.286-.22-.77-.33-1.452-.33h-1.012v-.737h1.023c.52 0 .928-.132 1.221-.396.286-.264.429-.634.429-1.111 0-.814-.572-1.203-1.716-1.166-.227 0-.528.03-.902.088a5.822 5.822 0 00-.957.209l-.033-.704a7.96 7.96 0 012.013-.319c.719-.03 1.302.117 1.749.44.447.337.675.796.682 1.375.015.88-.312 1.507-.979 1.881zm6.415.187v2.816c.022.271.235.433.638.484l-.033.649c-.58 0-1.015-.147-1.309-.44a4.84 4.84 0 01-1.98.44c-.506 0-.89-.143-1.155-.429-.264-.286-.396-.697-.396-1.232s.136-.928.407-1.177c.272-.257.697-.414 1.276-.473l1.727-.165v-.473c0-.374-.08-.642-.242-.803-.161-.161-.381-.242-.66-.242-.586 0-1.195.037-1.826.11l-.34.033-.034-.627c.807-.161 1.522-.242 2.145-.242.624 0 1.075.143 1.353.429.286.286.43.733.43 1.342zm-3.388 2.244c0 .675.279 1.012.836 1.012.499 0 .99-.084 1.474-.253l.253-.088v-1.815l-1.628.154c-.33.03-.568.125-.715.286-.146.161-.22.396-.22.704zm5.016-3.905h3.465v.715h-2.651V17h-.814v-5.5zm4.587 7.942V11.5h.814v.396c.557-.337 1.107-.506 1.65-.506.697 0 1.203.224 1.518.671.315.44.473 1.17.473 2.189 0 1.02-.187 1.753-.561 2.2-.367.44-.98.66-1.837.66-.447 0-.858-.04-1.232-.121v2.453h-.825zm2.343-7.315c-.22 0-.458.037-.715.11-.25.073-.447.147-.594.22l-.21.11v3.707c.522.08.918.121 1.189.121.594 0 1.008-.169 1.243-.506.242-.337.363-.887.363-1.65 0-.763-.11-1.305-.33-1.628-.213-.323-.528-.484-.946-.484zm3.788 6.633c.183.007.322.007.418 0 .278-.022.491-.253.638-.693L79.294 17h-.583l-1.672-5.5h.836l1.408 4.774h.264l1.518-4.774h.803l-2.222 6.776c-.191.47-.385.788-.583.957a.953.953 0 01-.65.253c-.234 0-.41-.015-.527-.044v-.682zm6.24-4.862c.395 0 .725-.073.99-.22.3-.161.45-.396.45-.704 0-.308-.102-.524-.308-.649-.205-.125-.55-.19-1.033-.198a6.378 6.378 0 00-1.563.187l-.033-.66c.088-.022.176-.04.264-.055.088-.022.264-.055.528-.099a5.18 5.18 0 01.947-.077c1.312 0 1.972.499 1.98 1.496.014.565-.202.975-.65 1.232.294.125.507.286.639.484s.197.477.197.836c0 1.115-.751 1.654-2.255 1.617-.66-.015-1.224-.08-1.694-.198l.044-.693c.338.066.605.114.803.143.198.03.514.044.947.044.432 0 .766-.066 1-.198.235-.132.352-.374.352-.726 0-.36-.146-.609-.44-.748-.249-.117-.638-.176-1.165-.176h-.66v-.638h.66zm7.515 3.113V12.38h-.088L89.1 17.011h-1.221V11.5h.814v4.576h.088l2.453-4.576h1.21v5.511h-.803zm1.92-5.511h4.664v.704H96.3V17h-.814v-4.796h-1.925V11.5zm9.531 4.818l.319-.033.022.649c-.836.117-1.551.176-2.145.176-.792 0-1.353-.227-1.683-.682-.33-.462-.495-1.177-.495-2.145 0-1.929.766-2.893 2.299-2.893.74 0 1.294.209 1.661.627.366.41.55 1.06.55 1.947l-.044.627h-3.63c0 .609.11 1.06.33 1.353.22.293.601.44 1.144.44.55 0 1.107-.022 1.672-.066zm-.297-2.387c0-.675-.11-1.151-.33-1.43-.213-.279-.565-.418-1.056-.418-.484 0-.851.147-1.1.44-.242.293-.367.763-.374 1.408h2.86zm7.926 1.485c.008.315-.077.546-.253.693-.168.14-.473.209-.913.209h-1.419v-1.826h1.54c.69 0 1.038.308 1.045.924zm-.099-2.409c0 .543-.319.814-.957.814h-1.529v-1.628h1.595c.594 0 .891.271.891.814zM109.544 17c1.364 0 2.046-.528 2.046-1.584 0-.264-.062-.524-.187-.781a1 1 0 00-.583-.539.818.818 0 00.231-.143c.066-.066.129-.136.187-.209.154-.227.228-.502.22-.825-.007-.946-.59-1.419-1.749-1.419h-2.387V17h2.222zM62.16 33.76V31.8h3.9v6.96c-.36.093-1.093.193-2.2.3-1.093.107-1.887.16-2.38.16-2.08 0-3.513-.573-4.3-1.72-.787-1.147-1.18-2.94-1.18-5.38 0-2.453.4-4.24 1.2-5.36.813-1.12 2.213-1.68 4.2-1.68 1.173 0 2.493.133 3.96.4l.7.14-.08 1.76c-1.613-.213-3.06-.32-4.34-.32-1.28 0-2.16.36-2.64 1.08-.467.72-.7 2.053-.7 4s.22 3.293.66 4.04c.453.733 1.36 1.1 2.72 1.1.973 0 1.7-.06 2.18-.18v-3.34h-1.7zm6.966-3.68c.693-.867 1.84-1.3 3.44-1.3 1.6 0 2.74.433 3.42 1.3.693.867 1.04 2.167 1.04 3.9s-.334 3.04-1 3.92c-.667.88-1.82 1.32-3.46 1.32s-2.794-.44-3.46-1.32c-.667-.88-1-2.187-1-3.92s.34-3.033 1.02-3.9zm1.64 6.5c.306.533.906.8 1.8.8.893 0 1.493-.267 1.8-.8.306-.533.46-1.407.46-2.62s-.167-2.073-.5-2.58c-.32-.507-.907-.76-1.76-.76-.854 0-1.447.253-1.78.76-.32.507-.48 1.367-.48 2.58s.153 2.087.46 2.62zm8.965-6.5c.693-.867 1.84-1.3 3.44-1.3 1.6 0 2.74.433 3.42 1.3.693.867 1.04 2.167 1.04 3.9s-.333 3.04-1 3.92c-.667.88-1.82 1.32-3.46 1.32s-2.793-.44-3.46-1.32c-.667-.88-1-2.187-1-3.92s.34-3.033 1.02-3.9zm1.64 6.5c.307.533.907.8 1.8.8s1.493-.267 1.8-.8c.307-.533.46-1.407.46-2.62s-.167-2.073-.5-2.58c-.32-.507-.907-.76-1.76-.76s-1.447.253-1.78.76c-.32.507-.48 1.367-.48 2.58s.153 2.087.46 2.62zm17.166 3.78c0 2.187-1.58 3.28-4.74 3.28-1.52 0-2.647-.207-3.38-.62-.734-.413-1.1-1.167-1.1-2.26 0-.493.12-.92.36-1.28.24-.347.626-.727 1.16-1.14-.44-.293-.66-.78-.66-1.46 0-.267.18-.7.54-1.3l.18-.3c-.96-.573-1.44-1.573-1.44-3 0-1.2.36-2.08 1.08-2.64.72-.56 1.693-.84 2.92-.84a7.66 7.66 0 011.74.2l.3.06 3.1-.08v1.76l-1.66-.1c.36.467.54 1.013.54 1.64 0 1.307-.334 2.213-1 2.72-.654.493-1.68.74-3.08.74a4.13 4.13 0 01-.88-.08c-.187.453-.28.807-.28 1.06 0 .24.12.407.36.5.253.093.853.147 1.8.16 1.586.013 2.673.227 3.26.64.586.413.88 1.193.88 2.34zm-7.08.2c0 .467.186.8.56 1 .373.2 1.013.3 1.92.3 1.613 0 2.42-.46 2.42-1.38 0-.52-.147-.853-.44-1-.28-.133-.847-.207-1.7-.22l-1.96-.12c-.294.24-.5.46-.62.66-.12.213-.18.467-.18.76zm.16-8.28c0 .613.146 1.067.44 1.36.293.28.766.42 1.42.42.653 0 1.12-.14 1.4-.42.293-.293.44-.747.44-1.36 0-.613-.147-1.06-.44-1.34-.294-.293-.767-.44-1.42-.44-1.227 0-1.84.593-1.84 1.78zm8.807 6.72V24.84h2.18V39h-2.18zm12.059-1.8l.56-.06.04 1.62c-1.52.307-2.867.46-4.04.46-1.48 0-2.547-.407-3.2-1.22-.64-.813-.96-2.113-.96-3.9 0-3.547 1.447-5.32 4.34-5.32 2.8 0 4.2 1.527 4.2 4.58l-.14 1.56h-6.2c.013.827.193 1.433.54 1.82.347.387.993.58 1.94.58s1.92-.04 2.92-.12zm-1.2-3.96c0-.987-.16-1.673-.48-2.06-.307-.4-.833-.6-1.58-.6-.747 0-1.293.207-1.64.62-.333.413-.507 1.093-.52 2.04h4.22zm13.911 1.5h-2.8V39h-2.22V25.3h5.02c3.106 0 4.66 1.533 4.66 4.6 0 1.573-.394 2.773-1.18 3.6-.774.827-1.934 1.24-3.48 1.24zm-2.8-1.92h2.78c1.6 0 2.4-.973 2.4-2.92 0-.933-.194-1.613-.58-2.04-.387-.427-.994-.64-1.82-.64h-2.78v5.6zM131.85 39V24.84h2.18V39h-2.18zm12.339-6.92v4.56c.013.293.086.513.22.66.146.133.366.22.66.26l-.06 1.66c-1.147 0-2.034-.247-2.66-.74-1.067.493-2.14.74-3.22.74-1.987 0-2.98-1.06-2.98-3.18 0-1.013.266-1.747.8-2.2.546-.453 1.38-.727 2.5-.82l2.58-.22v-.72c0-.533-.12-.907-.36-1.12-.227-.213-.567-.32-1.02-.32-.854 0-1.92.053-3.2.16l-.64.04-.08-1.54c1.453-.347 2.786-.52 4-.52 1.226 0 2.106.267 2.64.8.546.52.82 1.353.82 2.5zm-4.48 2.48c-.92.08-1.38.58-1.38 1.5s.406 1.38 1.22 1.38c.666 0 1.373-.107 2.12-.32l.36-.12v-2.66l-2.32.22zm6.179-5.56h2.14l2.12 8.14h.54l2.12-8.14h2.16l-3.8 14.3h-2.14l1.2-4.3h-1.72l-2.62-10z" fill="#fff"/><g clip-path="url(#clip0_117_1457)"><path d="M30.248 24.421L19.903 13.616l13.162 7.87-2.817 2.935zm-13.045-11.44a1.906 1.906 0 00-1.017 1.723v21.548a1.91 1.91 0 001.017 1.723l12.029-12.5L17.203 12.98zm19.931 11.015l-2.76-1.665-3.08 3.15 3.08 3.149 2.816-1.665c.844-.698.844-2.27-.056-2.969zm-17.23 13.35l13.162-7.871-2.817-2.934-10.345 10.805z" fill="#fff"/></g><path d="M3.318 49.367l-.447.895.447-.895zM.633 46.682l.894-.447-.894.447zm172.734 0l.895.447-.895-.447zm-2.685 2.685l-.447-.894.447.894zm0-48.734l.447-.895-.447.895zm2.685 2.685l.895-.447-.895.447zm-172.734 0l-.895-.447.895.447zM9.54 1h154.92v-2H9.54v2zM173 9.54v30.92h2V9.54h-2zM164.46 49H9.54v2h154.92v-2zM1 40.46V9.54h-2v30.92h2zM9.54 49c-1.668 0-2.86 0-3.795-.076-.923-.074-1.51-.216-1.98-.451l-.894 1.789c.796.397 1.669.572 2.714.656C6.618 51 7.905 51 9.54 51v-2zM-1 40.46c0 1.636 0 2.922.082 3.955.084 1.045.259 1.918.656 2.714l1.79-.894c-.236-.47-.378-1.057-.452-1.98C1 43.32 1 42.128 1 40.46h-2zm4.765 8.013a5 5 0 01-2.238-2.238l-1.789.894a7 7 0 003.133 3.133l.894-1.79zM173 40.46c0 1.668-.001 2.86-.076 3.795-.074.923-.216 1.51-.451 1.98l1.789.894c.397-.796.572-1.669.656-2.714.083-1.033.082-2.32.082-3.955h-2zM164.46 51c1.636 0 2.922 0 3.955-.082 1.045-.084 1.918-.259 2.714-.656l-.894-1.79c-.471.236-1.057.378-1.98.452-.935.075-2.127.076-3.795.076v2zm8.013-4.765a5.003 5.003 0 01-2.238 2.238l.894 1.789a7.002 7.002 0 003.133-3.133l-1.789-.894zM164.46 1c1.668 0 2.86 0 3.795.076.923.074 1.509.216 1.98.451l.894-1.789c-.796-.397-1.669-.572-2.714-.656C167.382-1 166.096-1 164.46-1v2zM175 9.54c0-1.636.001-2.922-.082-3.955-.084-1.045-.259-1.918-.656-2.714l-1.789.894c.235.47.377 1.057.451 1.98.075.935.076 2.127.076 3.795h2zm-4.765-8.013a5.003 5.003 0 012.238 2.238l1.789-.894a7.002 7.002 0 00-3.133-3.133l-.894 1.79zM9.54-1c-1.636 0-2.922 0-3.955.082-1.045.084-1.918.259-2.714.656l.894 1.79c.47-.236 1.057-.378 1.98-.452C6.68 1 7.872 1 9.54 1v-2zM1 9.54c0-1.668 0-2.86.076-3.795.074-.923.216-1.51.451-1.98l-1.789-.894c-.397.796-.572 1.669-.656 2.714C-1 6.618-1 7.905-1 9.54h2zM2.871-.262A7 7 0 00-.262 2.871l1.79.894a5 5 0 012.237-2.238L2.871-.262z" fill="#fff"/><defs><clipPath id="clip0_117_1457"><path fill="#fff" transform="translate(15 12.98)" d="M0 0h24v25H0z"/></clipPath></defs></svg>