<svg width="44" height="44" fill="none" xmlns="http://www.w3.org/2000/svg"><path d="M33.497 27.6a15.848 15.848 0 01-1.532 2.803c-.805 1.169-1.465 1.978-1.973 2.427-.788.738-1.632 1.116-2.536 1.137-.65 0-1.432-.188-2.343-.57-.914-.379-1.754-.567-2.522-.567-.806 0-1.67.188-2.594.568-.925.381-1.67.58-2.24.6-.867.037-1.732-.351-2.594-1.168-.55-.488-1.239-1.326-2.064-2.513-.885-1.267-1.613-2.737-2.183-4.412-.61-1.81-.916-3.563-.916-5.26 0-1.943.413-3.619 1.239-5.024a7.337 7.337 0 012.595-2.671 6.89 6.89 0 013.509-1.008c.688 0 1.591.217 2.713.643 1.119.427 1.837.644 2.152.644.236 0 1.034-.253 2.387-.759 1.28-.468 2.36-.662 3.244-.586 2.397.197 4.198 1.159 5.396 2.892-2.144 1.322-3.204 3.174-3.183 5.55.019 1.85.678 3.39 1.975 4.612A6.482 6.482 0 0034 26.256c-.158.467-.325.914-.503 1.344zM27.999 5.58c0 1.45-.52 2.805-1.558 4.058-1.252 1.49-2.767 2.351-4.41 2.215a4.588 4.588 0 01-.033-.55c0-1.392.596-2.882 1.653-4.1.529-.617 1.2-1.13 2.014-1.539.813-.403 1.581-.626 2.304-.664.021.194.03.388.03.58z" fill="#fff"/><rect x=".5" y=".5" width="43" height="43" rx="4.5" stroke="url(#paint0_linear_22_92)"/><defs><linearGradient id="paint0_linear_22_92" x1="-8" y1="-4.5" x2="39" y2="41" gradientUnits="userSpaceOnUse"><stop stop-color="#fff"/><stop offset="1" stop-color="#fff" stop-opacity="0"/></linearGradient></defs></svg>