<svg width="70" height="40" fill="none" xmlns="http://www.w3.org/2000/svg"><path d="M.5 25.59H0v.512h.5v-.513zm0-2.286v-.513H0v.513h.5zm11.267 0h.5v-.513h-.5v.513zm0 2.285v.513h.5v-.513h-.5zm-4.349 0v-.513h-.5v.513h.5zm0 13.528v.513h.5v-.513h-.5zm-2.523 0h-.501v.513h.5v-.513zm0-13.528h.5v-.513h-.5v.513zM1 25.59v-2.285H0v2.285h1.001zm-.5-1.772h11.266v-1.026H.5v1.026zm10.765-.513v2.285h1.002v-2.285h-1.002zm.5 1.772H7.419v1.026h4.349v-1.026zm-4.849.513v13.528H7.92V25.59H6.917zm.501 13.015H4.895v1.026h2.523v-1.026zm-2.023.513V25.59h-1v13.528h1.001zm-.5-14.04H.5v1.025h4.394v-1.026zm7.142 14.04h-.5v.513h.5v-.513zm0-11.542v-.513h-.5v.513h.5zm2.433 0h.501v-.513h-.5v.513zm0 1.385h-.5v.943l.772-.512-.272-.431zm3.83-1.64h.502v-.618l-.594.115.093.504zm0 2.517l.098.503.404-.081v-.422H18.3zm-3.311 1.016l.19.475.006-.003.006-.003-.202-.47zm-.496.207l-.19-.474-.31.13v.345h.5zm0 8.057v.513h.5v-.513h-.5zm-1.955 0V27.575h-1.002v11.542h1.002zm-.501-11.03h2.433v-1.025h-2.433v1.026zm1.933-.512v1.385h1.001v-1.385h-1zm.772 1.816c1.232-.817 2.448-1.334 3.651-1.566l-.185-1.008c-1.35.26-2.687.836-4.01 1.712l.544.861zm3.058-2.07v2.516h1.002v-2.516H17.8zm.404 2.013c-1.318.267-2.46.615-3.418 1.05l.405.938c.874-.396 1.94-.725 3.207-.982l-.194-1.006zm-3.405 1.044l-.496.208.38.95.495-.208-.379-.95zm-.807.683v8.056h1.002v-8.056h-1.002zm.5 7.543h-2.455v1.026h2.456v-1.026zm12.514-11.03v-.512h-.501v.513h.5zm2.433 0h.5v-.512h-.5v.513zm0 11.543v.513h.5v-.513h-.5zm-2.433 0h-.501v.513h.5v-.513zm0-.715h.5v-.888l-.75.443.25.444zm-6.151-.3l-.425.271v.002l.002.002.423-.276zm-.79-10.527v-.513h-.5v.513h.5zm2.457 0h.5v-.513h-.5v.513zm.338 8.841l.45-.223-.45.223zm3.808.254l-.186-.476-.009.003-.009.004.204.47zm.338-.138l.186.476.314-.13v-.346h-.5zm0-8.444h2.433v-1.026h-2.433v1.026zm1.932-.513v11.542h1.002V27.575h-1.002zm.501 11.03h-2.433v1.025h2.433v-1.026zm-1.933.512v-.715h-1.001v.715h1.001zm-.75-1.16c-1.047.617-1.974.901-2.792.901v1.026c1.045 0 2.145-.362 3.292-1.038l-.5-.89zm-2.792.901c-1.48 0-2.298-.405-2.687-1.032l-.845.55c.662 1.067 1.917 1.508 3.532 1.508v-1.026zm-2.685-1.028c-.445-.73-.712-2.102-.712-4.23h-1.002c0 2.15.259 3.78.865 4.773l.85-.543zm-.712-4.23v-6.025h-1.002V33.6h1.002zm-.501-5.512h2.456v-1.026h-2.456v1.026zm1.955-.513v6.048h1.002v-6.048H22.02zm0 6.048c0 .705.029 1.306.088 1.8.06.485.152.903.3 1.217l.902-.447c-.078-.164-.154-.45-.208-.896-.053-.437-.08-.994-.08-1.674H22.02zm.388 3.017c.352.746 1.135 1.005 2.028 1.005V36.62c-.76 0-1.028-.218-1.126-.426l-.902.447zm2.028 1.005c.874 0 1.688-.166 2.434-.506l-.407-.938a4.828 4.828 0 01-2.027.418v1.026zm2.417-.499l.338-.138-.372-.953-.338.139.372.952zm.652-.614v-8.957h-1.001v8.957h1.001zm12.726-6.58l-.068.509.556.077.012-.574-.5-.012zm-5.52-.069l.257.44.003-.002.003-.002-.264-.436zm.044 1.778l-.224.459.004.002.004.002.216-.463zm2.389.6l-.09.505h.007l.083-.505zm2.681 1.039l-.332.384.332-.384zm-.36 5.217l-.295-.415-.001.001-.002.002.297.412zm-6.783.462l.09-.505-.005-.001h-.005l-.08.506zm-.698-.116l-.5-.022-.02.456.44.073.08-.507zm.09-2.1l.066-.509-.542-.074-.024.56.5.023zm5.588.069l-.246-.447-.005.003-.004.002.255.442zm.023-1.94l-.25.446.013.007.012.006.224-.458zm-2.321-.577l-.086.506h.004l.003.001.079-.507zm-2.682-.992l.304-.408-.304.408zM33 28.22l-.292-.417-.002.002h-.002l.296.415zm6.58-.508l.094-.503-.005-.001-.005-.001-.085.505zm.698.139l.5.011.01-.433-.415-.082-.095.504zm.022 1.592c-1.775-.246-3.088-.374-3.92-.374v1.026c.76 0 2.015.119 3.785.365l.135-1.017zm-3.92-.374c-.805 0-1.487.095-1.931.377l.527.872c.186-.118.616-.223 1.404-.223V29.07zm-1.925.373c-.478.294-.694.778-.694 1.34h1.001c0-.268.084-.384.208-.46l-.515-.88zm-.694 1.34c0 .278.055.548.191.788.138.244.34.425.581.549l.448-.918a.367.367 0 01-.162-.145.55.55 0 01-.057-.273H33.76zm.78 1.34c.223.11.55.212.953.313.412.103.934.213 1.563.33l.178-1.01a25.202 25.202 0 01-1.502-.317c-.394-.098-.636-.18-.76-.241l-.432.925zm2.522.644c1.235.21 2.014.537 2.432.917l.664-.768c-.633-.575-1.642-.941-2.931-1.161l-.165 1.012zm2.432.917c.364.33.62.99.62 2.155h1.001c0-1.266-.27-2.3-.957-2.923l-.664.768zm.62 2.155c0 1.098-.34 1.814-.943 2.263l.589.83c.928-.69 1.355-1.76 1.355-3.093h-1.001zm-.946 2.266c-.629.476-1.609.753-3.015.753v1.026c1.508 0 2.737-.292 3.61-.955l-.595-.825zm-3.015.753c-.874 0-1.998-.125-3.38-.384l-.18 1.01c1.413.264 2.602.4 3.56.4v-1.026zm-3.39-.386l-.699-.115-.16 1.013.7.115.159-1.013zm-.278.414l.09-2.101-1-.045-.09 2.1 1 .046zm-.476-1.615c1.804.246 3.132.374 3.964.374v-1.026c-.76 0-2.03-.119-3.832-.365l-.132 1.017zm3.964.374c.808 0 1.49-.097 1.945-.372l-.51-.883c-.206.125-.651.229-1.435.229v1.026zm1.936-.367c.527-.305.773-.822.773-1.439H37.68c0 .307-.1.451-.263.546l.492.893zm.773-1.439c0-.292-.052-.575-.184-.825a1.346 1.346 0 00-.589-.58l-.448.917c.079.04.124.089.155.148.034.064.065.17.065.34h1zm-.748-1.392c-.224-.13-.556-.238-.947-.336-.405-.1-.921-.201-1.544-.302l-.157 1.013c.61.1 1.096.195 1.464.286.383.095.595.176.687.23l.497-.89zm-2.484-.637c-1.187-.21-1.987-.523-2.463-.895l-.608.816c.666.52 1.654.87 2.9 1.09l.17-1.011zm-2.463-.895c-.387-.302-.66-.916-.66-2.04h-1c0 1.248.297 2.265 1.052 2.856l.608-.816zm-.66-2.04c0-1.057.341-1.771.967-2.24l-.59-.828c-.937.7-1.378 1.756-1.378 3.069h1.002zm.963-2.237c.692-.508 1.596-.781 2.75-.781V26.83c-1.309 0-2.432.311-3.333.973l.583.834zm2.75-.781c.924 0 2.072.118 3.453.362l.17-1.011c-1.413-.25-2.623-.377-3.622-.377v1.026zm3.443.36l.699.138.19-1.007-.699-.138-.19 1.007zm.293-.377l-.045 2.101 1.001.023.045-2.101-1.001-.023zm9.26 1.882v.513h.5v-.513h-.5zm-3.11 0v-.513h-.5v.513h.5zm.203 6.948l.457-.21-.457.21zm1.037.462v.513h.017l-.018-.513zm1.848-.07l.5-.029-.029-.502-.49.019.019.513zm.112 2.009l.096.504.43-.086-.026-.447-.5.029zm-4.934-.6l-.392.319.002.003.002.003.388-.325zm-.699-8.75h.5v-.512h-.5v.513zm-1.442 0h-.5v.514h.5v-.513zm0-2.146v-.513h-.5v.513h.5zm1.442 0v.513h.5v-.513h-.5zm0-3.348v-.513h-.5v.513h.5zm2.434 0h.5v-.513h-.5v.513zm0 3.348h-.501v.513h.5v-.513zm3.109 0h.5v-.513h-.5v.513zm0 1.634h-3.11v1.026h3.11v-1.026zm-3.61.513V34.8h1.001v-5.078h-1.001zm0 5.078c0 .48.017.891.054 1.229.035.327.093.624.193.852l.913-.421c-.035-.08-.079-.249-.111-.545a10.661 10.661 0 01-.048-1.115h-1.001zm.247 2.08c.262.598.886.765 1.493.765v-1.026c-.24 0-.39-.034-.476-.073-.076-.034-.095-.066-.104-.086l-.913.42zm1.511.764l1.848-.069-.037-1.025-1.847.07.036 1.025zm1.33-.552l.112 2.008 1-.059-.112-2.008-1 .059zm.517 1.475c-.999.199-1.727.291-2.203.291v1.026c.575 0 1.38-.108 2.393-.31l-.19-1.007zm-2.203.291c-1.227 0-1.913-.292-2.25-.713l-.774.651c.625.78 1.697 1.088 3.024 1.088v-1.026zm-2.244-.706c-.167-.215-.319-.562-.426-1.086-.107-.519-.164-1.18-.164-1.989h-1.002c0 .853.06 1.59.186 2.201.125.607.322 1.126.622 1.512l.784-.639zm-.59-3.075v-5.355h-1.002v5.355h1.002zm-.5-5.868H42.05v1.026h1.442v-1.026zm-.942.513v-2.147H41.55v2.147h1.002zm-.501-1.634h1.442v-1.026h-1.442v1.026zm1.943-.513v-3.348h-1.002v3.348h1.002zm-.5-2.835h2.433v-1.026h-2.434v1.026zm1.932-.513v3.348h1.001v-3.348h-1.001zm.5 3.86h3.11v-1.025h-3.11v1.026zm2.61-.512v2.147h1v-2.147h-1zM0 16.027L3.78.343h4.943l3.802 15.684H10.02l-.827-3.366H3.31l-.827 3.366H0zM5.703 2.473l-1.9 7.945H8.7L6.822 2.473H5.703zm7.314 2.106h2.55l2.147 9.319h.716l2.236-9.319h2.483l-2.907 11.448h-4.34L13.018 4.58zm20.16 3.526v5.22c.015.336.097.588.247.756.164.153.41.252.738.298l-.068 1.9c-1.282 0-2.273-.282-2.974-.847-1.193.565-2.393.847-3.601.847-2.222 0-3.333-1.213-3.333-3.64 0-1.16.299-2 .895-2.519.611-.519 1.543-.832 2.796-.939l2.885-.252v-.824c0-.61-.134-1.038-.403-1.282-.253-.244-.633-.366-1.14-.366-.955 0-2.147.06-3.579.183l-.716.046-.09-1.763c1.626-.397 3.117-.596 4.474-.596 1.372 0 2.356.306 2.953.916.61.595.916 1.55.916 2.862zm-5.01 2.84c-1.028.09-1.543.663-1.543 1.716 0 1.054.455 1.58 1.365 1.58.745 0 1.535-.122 2.37-.366l.403-.137v-3.046l-2.595.252zm10.51 5.082h-2.439V4.58h2.416v.71c1.088-.641 2.117-.962 3.086-.962 1.491 0 2.505.435 3.042 1.305.552.855.828 2.275.828 4.26v6.135h-2.416V9.96c0-1.237-.134-2.114-.403-2.633-.253-.52-.782-.779-1.587-.779-.76 0-1.492.153-2.192.458l-.336.138v8.883zM54.463 6.71h-3.086v5.037c0 .93.067 1.549.201 1.854.134.306.477.458 1.029.458l1.834-.069.112 1.992c-1 .199-1.76.298-2.282.298-1.267 0-2.14-.298-2.616-.893-.462-.595-.694-1.717-.694-3.366V6.71H47.53V4.58h1.431V1.26h2.416v3.32h3.086v2.13zm2 9.318V4.58h2.438v11.448h-2.438zm0-13.394V0h2.438v2.633h-2.438zM69.62 6.937c-1.76-.244-3.035-.366-3.825-.366s-1.342.1-1.655.298c-.298.183-.447.48-.447.893 0 .412.164.702.492.87.343.168 1.133.366 2.37.595 1.253.214 2.14.557 2.662 1.03.522.474.783 1.313.783 2.519 0 1.206-.38 2.091-1.14 2.656-.746.565-1.842.847-3.288.847-.91 0-2.058-.13-3.445-.39l-.693-.114.09-2.083c1.788.244 3.078.366 3.869.366.79 0 1.349-.1 1.677-.297.343-.199.514-.527.514-.985 0-.458-.164-.77-.492-.939-.313-.183-1.08-.374-2.303-.572-1.208-.214-2.095-.542-2.662-.985-.567-.442-.85-1.251-.85-2.427 0-1.175.388-2.053 1.163-2.633.79-.58 1.797-.87 3.02-.87.954 0 2.124.122 3.511.367l.694.137-.045 2.083z" fill="#fff"/><path stroke="#7000FF" d="M0 19.035h31.744"/></svg>