<svg width="44" height="44" fill="none" xmlns="http://www.w3.org/2000/svg"><path d="M25.248 20.983L14.903 10.61l13.162 7.556-2.817 2.817zM12.203 10c-.61.319-1.016.9-1.016 1.655V32.34c0 .755.408 1.336 1.017 1.655l12.028-12L12.204 10zm19.931 10.575l-2.76-1.598L26.293 22l3.08 3.023 2.816-1.598c.844-.67.844-2.18-.056-2.85zm-17.23 12.816l13.162-7.556-2.817-2.817L14.904 33.39z" fill="#fff"/><rect x=".5" y=".5" width="43" height="43" rx="4.5" stroke="url(#paint0_linear_22_80)"/><defs><linearGradient id="paint0_linear_22_80" x1="-8.5" y1="-8" x2="40.5" y2="40.5" gradientUnits="userSpaceOnUse"><stop stop-color="#fff"/><stop offset="1" stop-color="#fff" stop-opacity="0"/></linearGradient></defs></svg>