<svg width="174" height="50" fill="none" xmlns="http://www.w3.org/2000/svg"><g clip-path="url(#clip0_117_1456)" fill="#fff"><path d="M59.125 12.974c.8.286 1.195.91 1.188 1.87-.015.711-.257 1.265-.726 1.661-.47.403-1.107.594-1.914.572a10.506 10.506 0 01-1.353-.143 7.122 7.122 0 01-.627-.11.366.366 0 01-.088-.022l.055-.726c.059.015.15.033.275.055.147.03.3.055.462.077.455.073.84.117 1.155.132 1.269.03 1.903-.48 1.903-1.529 0-.499-.132-.854-.396-1.067-.286-.22-.77-.33-1.452-.33h-1.012v-.737h1.023c.52 0 .928-.132 1.221-.396.286-.264.429-.634.429-1.111 0-.814-.572-1.203-1.716-1.166-.227 0-.528.03-.902.088a5.822 5.822 0 00-.957.209l-.033-.704a7.96 7.96 0 012.013-.319c.719-.03 1.302.117 1.749.44.447.337.675.796.682 1.375.015.88-.312 1.507-.979 1.881zm6.415.187v2.816c.022.271.235.433.638.484l-.033.649c-.58 0-1.015-.147-1.309-.44a4.84 4.84 0 01-1.98.44c-.506 0-.89-.143-1.155-.429-.264-.286-.396-.697-.396-1.232s.136-.928.407-1.177c.272-.257.697-.414 1.276-.473l1.727-.165v-.473c0-.374-.08-.642-.242-.803-.161-.161-.381-.242-.66-.242-.586 0-1.195.037-1.826.11l-.34.033-.034-.627c.807-.161 1.522-.242 2.145-.242.624 0 1.075.143 1.353.429.286.286.43.733.43 1.342zm-3.388 2.244c0 .675.279 1.012.836 1.012.499 0 .99-.084 1.474-.253l.253-.088v-1.815l-1.628.154c-.33.03-.568.125-.715.286-.146.161-.22.396-.22.704zm5.016-3.905h3.465v.715h-2.651V17h-.814v-5.5zm4.587 7.942V11.5h.814v.396c.557-.337 1.107-.506 1.65-.506.697 0 1.203.224 1.518.671.315.44.473 1.17.473 2.189 0 1.02-.187 1.753-.561 2.2-.367.44-.98.66-1.837.66-.447 0-.858-.04-1.232-.121v2.453h-.825zm2.343-7.315c-.22 0-.458.037-.715.11-.25.073-.447.147-.594.22l-.21.11v3.707c.522.08.918.121 1.189.121.594 0 1.008-.169 1.243-.506.242-.337.363-.887.363-1.65 0-.763-.11-1.305-.33-1.628-.213-.323-.528-.484-.946-.484zm3.788 6.633c.183.007.322.007.418 0 .278-.022.491-.253.638-.693L79.294 17h-.583l-1.672-5.5h.836l1.408 4.774h.264l1.518-4.774h.803l-2.222 6.776c-.191.47-.385.788-.583.957a.953.953 0 01-.65.253c-.234 0-.41-.015-.527-.044v-.682zm6.24-4.862c.395 0 .725-.073.99-.22.3-.161.45-.396.45-.704 0-.308-.102-.524-.308-.649-.205-.125-.55-.19-1.033-.198a6.378 6.378 0 00-1.563.187l-.033-.66c.088-.022.176-.04.264-.055.088-.022.264-.055.528-.099a5.18 5.18 0 01.947-.077c1.312 0 1.972.499 1.98 1.496.014.565-.202.975-.65 1.232.294.125.507.286.639.484s.197.477.197.836c0 1.115-.751 1.654-2.255 1.617-.66-.015-1.224-.08-1.694-.198l.044-.693c.338.066.605.114.803.143.198.03.514.044.947.044.432 0 .766-.066 1-.198.235-.132.352-.374.352-.726 0-.36-.146-.609-.44-.748-.249-.117-.638-.176-1.165-.176h-.66v-.638h.66zm7.515 3.113V12.38h-.088L89.1 17.011h-1.221V11.5h.814v4.576h.088l2.453-4.576h1.21v5.511h-.803zm1.92-5.511h4.664v.704H96.3V17h-.814v-4.796h-1.925V11.5zm9.531 4.818l.319-.033.022.649c-.836.117-1.551.176-2.145.176-.792 0-1.353-.227-1.683-.682-.33-.462-.495-1.177-.495-2.145 0-1.929.766-2.893 2.299-2.893.74 0 1.294.209 1.661.627.366.41.55 1.06.55 1.947l-.044.627h-3.63c0 .609.11 1.06.33 1.353.22.293.601.44 1.144.44.55 0 1.107-.022 1.672-.066zm-.297-2.387c0-.675-.11-1.151-.33-1.43-.213-.279-.565-.418-1.056-.418-.484 0-.851.147-1.1.44-.242.293-.367.763-.374 1.408h2.86zm7.926 1.485c.008.315-.077.546-.253.693-.168.14-.473.209-.913.209h-1.419v-1.826h1.54c.69 0 1.038.308 1.045.924zm-.099-2.409c0 .543-.319.814-.957.814h-1.529v-1.628h1.595c.594 0 .891.271.891.814zM109.544 17c1.364 0 2.046-.528 2.046-1.584 0-.264-.062-.524-.187-.781a1 1 0 00-.583-.539.818.818 0 00.231-.143c.066-.066.129-.136.187-.209.154-.227.228-.502.22-.825-.007-.946-.59-1.419-1.749-1.419h-2.387V17h2.222zM55.4 39l3.38-13.7h4.42L66.6 39h-2.24l-.74-2.94h-5.26L57.62 39H55.4zm5.1-11.84l-1.7 6.94h4.38l-1.68-6.94h-1zm7.793 16.14V29h2.16v.62c.92-.56 1.78-.84 2.58-.84 1.32 0 2.286.407 2.9 1.22.613.8.92 2.153.92 4.06 0 1.893-.354 3.227-1.06 4-.694.773-1.834 1.16-3.42 1.16-.547 0-1.18-.06-1.9-.18v4.26h-2.18zm4.36-12.58c-.627 0-1.254.14-1.88.42l-.3.14v5.9c.533.107 1.12.16 1.76.16.906 0 1.533-.26 1.88-.78.346-.52.52-1.407.52-2.66 0-2.12-.66-3.18-1.98-3.18zm6.382 12.58V29h2.16v.62c.92-.56 1.78-.84 2.58-.84 1.32 0 2.286.407 2.9 1.22.613.8.92 2.153.92 4.06 0 1.893-.353 3.227-1.06 4-.694.773-1.834 1.16-3.42 1.16-.547 0-1.18-.06-1.9-.18v4.26h-2.18zm4.36-12.58c-.627 0-1.254.14-1.88.42l-.3.14v5.9c.533.107 1.12.16 1.76.16.907 0 1.533-.26 1.88-.78.346-.52.52-1.407.52-2.66 0-2.12-.66-3.18-1.98-3.18zm15.057-3.7c-1.694 0-2.54.593-2.54 1.78 0 .613.2 1.053.6 1.32.4.253 1.28.573 2.64.96 1.373.373 2.34.827 2.9 1.36.56.52.84 1.347.84 2.48 0 1.44-.414 2.52-1.24 3.24-.814.707-1.927 1.06-3.34 1.06-1.134 0-2.387-.133-3.76-.4l-.72-.14.22-1.78c1.8.24 3.173.36 4.12.36 1.653 0 2.48-.733 2.48-2.2 0-.573-.187-.993-.56-1.26-.374-.28-1.214-.58-2.52-.9-1.307-.333-2.28-.787-2.92-1.36-.64-.573-.96-1.48-.96-2.72 0-1.24.4-2.173 1.2-2.8.813-.64 1.933-.96 3.36-.96 1.026 0 2.24.12 3.64.36l.7.12-.18 1.8c-1.867-.213-3.187-.32-3.96-.32zm11.822 3.84h-2.76v4.4c0 .813.06 1.353.18 1.62.12.267.427.4.92.4l1.64-.06.1 1.74c-.893.173-1.573.26-2.04.26-1.133 0-1.913-.26-2.34-.78-.413-.52-.62-1.5-.62-2.94v-4.64h-1.28V29h1.28v-2.9h2.16V29h2.76v1.86zm2.328-.78c.694-.867 1.84-1.3 3.44-1.3 1.6 0 2.74.433 3.42 1.3.694.867 1.04 2.167 1.04 3.9s-.333 3.04-1 3.92c-.666.88-1.82 1.32-3.46 1.32s-2.793-.44-3.46-1.32c-.666-.88-1-2.187-1-3.92s.34-3.033 1.02-3.9zm1.64 6.5c.307.533.907.8 1.8.8.894 0 1.494-.267 1.8-.8.307-.533.46-1.407.46-2.62s-.166-2.073-.5-2.58c-.32-.507-.906-.76-1.76-.76-.853 0-1.446.253-1.78.76-.32.507-.48 1.367-.48 2.58s.154 2.087.46 2.62zm8.426 2.42V29h2.16v1.2c1.133-.733 2.266-1.207 3.4-1.42v2.18c-1.147.227-2.127.52-2.94.88l-.44.18V39h-2.18zm14.268-1.8l.56-.06.04 1.62c-1.52.307-2.867.46-4.04.46-1.48 0-2.547-.407-3.2-1.22-.64-.813-.96-2.113-.96-3.9 0-3.547 1.447-5.32 4.34-5.32 2.8 0 4.2 1.527 4.2 4.58l-.14 1.56h-6.2c.013.827.193 1.433.54 1.82.347.387.993.58 1.94.58s1.92-.04 2.92-.12zm-1.2-3.96c0-.987-.16-1.673-.48-2.06-.307-.4-.833-.6-1.58-.6-.747 0-1.293.207-1.64.62-.333.413-.507 1.093-.52 2.04h4.22zM35.539 31.262a14.12 14.12 0 01-1.404 2.513c-.739 1.048-1.343 1.773-1.81 2.176-.721.662-1.495 1-2.324 1.02-.595 0-1.312-.169-2.147-.51-.838-.341-1.608-.51-2.312-.51-.739 0-1.53.169-2.378.51-.848.341-1.531.52-2.054.537-.794.034-1.587-.315-2.377-1.047-.505-.438-1.136-1.189-1.892-2.253-.811-1.136-1.478-2.454-2-3.956-.56-1.623-.841-3.194-.841-4.715 0-1.742.378-3.245 1.136-4.504a6.648 6.648 0 012.379-2.396 6.42 6.42 0 013.216-.903c.63 0 1.458.194 2.487.576 1.026.383 1.684.578 1.973.578.216 0 .948-.227 2.188-.68 1.173-.42 2.162-.595 2.973-.526 2.198.177 3.849 1.039 4.947 2.592-1.966 1.186-2.938 2.846-2.918 4.976.017 1.659.622 3.04 1.81 4.136.539.508 1.14.901 1.809 1.18-.145.42-.298.82-.461 1.206zm-5.04-19.742c0 1.3-.477 2.514-1.428 3.638-1.148 1.336-2.537 2.108-4.042 1.986a4.036 4.036 0 01-.03-.492c0-1.249.545-2.585 1.515-3.677.484-.553 1.1-1.013 1.846-1.38.745-.36 1.45-.56 2.112-.595.02.174.027.348.027.52z"/></g><path d="M3.318 49.367l-.447.895.447-.895zM.633 46.682l.894-.447-.894.447zm172.734 0l.895.447-.895-.447zm-2.685 2.685l-.447-.894.447.894zm0-48.734l.447-.895-.447.895zm2.685 2.685l.895-.447-.895.447zm-172.734 0l-.895-.447.895.447zM9.54 1h154.92v-2H9.54v2zM173 9.54v30.92h2V9.54h-2zM164.46 49H9.54v2h154.92v-2zM1 40.46V9.54h-2v30.92h2zM9.54 49c-1.668 0-2.86 0-3.795-.076-.923-.074-1.51-.216-1.98-.451l-.894 1.789c.796.397 1.669.572 2.714.656C6.618 51 7.905 51 9.54 51v-2zM-1 40.46c0 1.636 0 2.922.082 3.955.084 1.045.259 1.918.656 2.714l1.79-.894c-.236-.47-.378-1.057-.452-1.98C1 43.32 1 42.128 1 40.46h-2zm4.765 8.013a5 5 0 01-2.238-2.238l-1.789.894a7 7 0 003.133 3.133l.894-1.79zM173 40.46c0 1.668-.001 2.86-.076 3.795-.074.923-.216 1.51-.451 1.98l1.789.894c.397-.796.572-1.669.656-2.714.083-1.033.082-2.32.082-3.955h-2zM164.46 51c1.636 0 2.922 0 3.955-.082 1.045-.084 1.918-.259 2.714-.656l-.894-1.79c-.471.236-1.057.378-1.98.452-.935.075-2.127.076-3.795.076v2zm8.013-4.765a5.003 5.003 0 01-2.238 2.238l.894 1.789a7.002 7.002 0 003.133-3.133l-1.789-.894zM164.46 1c1.668 0 2.86 0 3.795.076.923.074 1.509.216 1.98.451l.894-1.789c-.796-.397-1.669-.572-2.714-.656C167.382-1 166.096-1 164.46-1v2zM175 9.54c0-1.636.001-2.922-.082-3.955-.084-1.045-.259-1.918-.656-2.714l-1.789.894c.235.47.377 1.057.451 1.98.075.935.076 2.127.076 3.795h2zm-4.765-8.013a5.003 5.003 0 012.238 2.238l1.789-.894a7.002 7.002 0 00-3.133-3.133l-.894 1.79zM9.54-1c-1.636 0-2.922 0-3.955.082-1.045.084-1.918.259-2.714.656l.894 1.79c.47-.236 1.057-.378 1.98-.452C6.68 1 7.872 1 9.54 1v-2zM1 9.54c0-1.668 0-2.86.076-3.795.074-.923.216-1.51.451-1.98l-1.789-.894c-.397.796-.572 1.669-.656 2.714C-1 6.618-1 7.905-1 9.54h2zM2.871-.262A7 7 0 00-.262 2.871l1.79.894a5 5 0 012.237-2.238L2.871-.262z" fill="#fff"/><defs><clipPath id="clip0_117_1456"><path d="M0 9.54c0-3.304 0-4.956.633-6.222A6 6 0 013.318.633C4.584 0 6.236 0 9.54 0h154.92c3.304 0 4.956 0 6.222.633a5.997 5.997 0 012.685 2.685C174 4.584 174 6.236 174 9.54v30.92c0 3.304 0 4.956-.633 6.222a5.997 5.997 0 01-2.685 2.685c-1.266.633-2.918.633-6.222.633H9.54c-3.304 0-4.956 0-6.222-.633a6 6 0 01-2.685-2.685C0 45.416 0 43.764 0 40.46V9.54z" fill="#fff"/></clipPath></defs></svg>